<?xml version="1.0" standalone="no"?>
<!DOCTYPE svg PUBLIC "-//W3C//DTD SVG 20010904//EN"
 "http://www.w3.org/TR/2001/REC-SVG-20010904/DTD/svg10.dtd">
<svg version="1.0" xmlns="http://www.w3.org/2000/svg"
 width="545.000000pt" height="229.000000pt" viewBox="0 0 545.000000 229.000000"
 preserveAspectRatio="xMidYMid meet">
<metadata>
Created by potrace 1.10, written by Peter Selinger 2001-2011
</metadata>
<g transform="translate(0.000000,229.000000) scale(0.100000,-0.100000)"
fill="#000000" stroke="none">
<path d="M2465 2062 c-53 -2 -85 -8 -96 -18 -15 -13 -17 -13 -22 1 -6 13 -36
15 -212 15 l-205 0 0 -285 0 -285 75 0 75 0 0 216 0 216 123 -4 c86 -2 129 -7
140 -17 14 -11 17 -33 17 -118 0 -143 0 -143 -113 -143 l-92 0 0 -75 0 -75
115 0 c92 0 123 4 158 20 65 30 72 55 72 273 0 175 1 186 25 232 13 27 23 49
22 50 -1 0 -38 -1 -82 -3z m-100 -51 c6 -1 30 1 55 5 l46 6 -4 -203 c-1 -112
-5 -214 -7 -226 -3 -12 -20 -31 -39 -42 -27 -17 -50 -21 -125 -21 l-92 0 3 33
3 32 73 5 c67 5 76 8 98 35 22 27 24 39 24 138 0 122 -11 150 -67 173 -40 17
-215 19 -246 2 -42 -22 -45 -36 -47 -222 0 -99 -3 -183 -6 -188 -9 -14 -52 -9
-58 8 -8 20 -8 437 0 458 5 13 31 15 192 12 103 -2 192 -4 197 -5z"/>
<path d="M1610 1113 l0 -173 30 0 30 0 0 169 0 169 -30 4 -30 5 0 -174z"/>
<path d="M540 1109 l0 -170 27 3 27 3 -3 119 -3 120 128 -123 c70 -67 134
-121 142 -119 12 3 15 31 16 171 l1 167 -27 0 -28 0 0 -116 0 -116 -120 116
c-70 67 -129 116 -140 116 -19 0 -20 -8 -20 -171z"/>
<path d="M1218 1263 c-9 -10 -29 -40 -45 -68 -47 -82 -86 -145 -120 -196 -18
-27 -33 -51 -33 -54 0 -3 18 -5 39 -5 43 0 37 -7 166 215 11 19 23 35 26 35 3
0 19 -20 37 -45 l32 -45 -50 0 c-45 0 -51 -3 -65 -31 l-16 -30 81 2 82 2 15
-31 c9 -18 19 -32 23 -32 4 0 10 -9 13 -20 4 -16 14 -20 47 -20 30 0 39 3 33
13 -59 94 -117 190 -134 222 -53 100 -96 128 -131 88z"/>
<path d="M1818 1113 l3 -168 146 1 146 1 1 26 2 27 -118 0 -118 0 0 140 0 140
-32 0 -33 0 3 -167z"/>
<path d="M2470 1111 l0 -171 30 0 31 0 -2 143 -1 142 116 0 c103 0 117 -2 130
-20 21 -27 20 -69 -2 -88 -15 -13 -39 -17 -115 -17 l-97 0 0 -30 0 -30 96 0
c81 0 102 3 131 21 59 36 76 93 48 153 -26 55 -53 63 -217 65 l-148 2 0 -170z"/>
<path d="M2970 1111 l0 -171 30 0 30 0 0 145 0 145 111 0 c138 0 169 -13 169
-72 0 -45 -31 -58 -142 -58 l-98 0 0 -31 0 -30 59 2 c58 2 60 2 119 -49 50
-43 66 -52 98 -52 l39 0 -52 52 -51 51 31 21 c46 31 69 82 57 127 -6 20 -22
46 -36 60 -25 23 -32 24 -195 27 l-169 4 0 -171z"/>
<path d="M3590 1259 c-48 -30 -64 -64 -64 -138 -1 -85 21 -123 89 -156 43 -20
62 -23 137 -21 100 4 144 24 182 85 33 54 28 140 -12 190 -40 49 -78 61 -200
59 -79 -1 -109 -6 -132 -19z m261 -53 c67 -43 63 -149 -7 -186 -35 -19 -168
-20 -211 -2 -40 17 -67 71 -59 116 7 38 41 73 82 86 45 14 166 6 195 -14z"/>
<path d="M616 813 c-3 -3 -6 -20 -6 -37 l0 -31 -26 33 c-38 48 -49 42 -48 -25
2 -64 24 -88 24 -26 l1 38 27 -33 c40 -47 52 -42 52 22 0 51 -9 74 -24 59z"/>
<path d="M924 806 c-9 -25 1 -109 14 -114 9 -3 12 14 12 62 0 61 -13 87 -26
52z"/>
<path d="M1040 761 l0 -61 35 0 c19 0 38 0 42 -1 4 0 9 4 11 10 2 5 -11 11
-29 13 -31 3 -33 5 -33 47 -1 26 -6 46 -13 48 -10 4 -13 -12 -13 -56z"/>
<path d="M2248 815 c-8 -9 36 -115 48 -115 6 0 18 15 26 33 l16 32 7 -32 c12
-53 37 -42 58 23 10 31 16 59 13 61 -10 10 -24 -8 -29 -37 -8 -39 -26 -39 -33
0 -4 17 -12 30 -19 30 -14 0 -37 -54 -28 -64 4 -3 2 -6 -4 -6 -5 0 -14 17 -19
37 -8 34 -23 50 -36 38z"/>
<path d="M2990 762 l0 -60 40 -4 c28 -2 40 0 40 9 0 8 -13 13 -31 13 -31 0
-31 0 -27 47 2 31 -1 48 -9 50 -10 4 -13 -12 -13 -55z"/>
<path d="M3520 755 c0 -37 4 -65 10 -65 6 0 10 11 10 25 0 20 5 25 24 25 17 0
26 -6 28 -20 6 -41 23 -19 26 35 2 44 0 55 -13 55 -9 0 -15 -9 -15 -25 0 -20
-5 -25 -25 -25 -21 0 -25 5 -25 30 0 17 -4 30 -10 30 -6 0 -10 -28 -10 -65z"/>
<path d="M3748 813 l-38 -4 0 -54 0 -53 40 -4 c28 -2 40 0 40 9 0 8 -12 13
-30 13 -16 0 -30 5 -30 10 0 6 11 10 25 10 14 0 25 5 25 10 0 6 -11 10 -25 10
-16 0 -25 6 -25 15 0 10 10 15 30 15 20 0 30 5 30 15 0 8 -1 14 -2 13 -2 -1
-20 -3 -40 -5z"/>
<path d="M741 754 c-22 -58 -20 -84 3 -51 17 22 52 22 65 0 6 -12 13 -15 20
-8 12 13 -35 115 -53 115 -7 0 -23 -25 -35 -56z m49 1 c0 -8 -4 -15 -10 -15
-5 0 -10 7 -10 15 0 8 5 15 10 15 6 0 10 -7 10 -15z"/>
<path d="M1212 798 c-20 -20 -13 -39 18 -50 30 -10 37 -37 9 -29 -26 7 -34 6
-37 -4 -1 -5 15 -11 37 -13 27 -2 40 1 44 12 9 24 -2 44 -26 48 -29 4 -35 29
-6 26 12 -2 24 3 26 10 6 16 -49 16 -65 0z"/>
<path d="M1700 756 l0 -56 40 0 c47 0 54 10 42 65 -7 37 -10 40 -45 43 l-37 3
0 -55z m60 19 c0 -8 -9 -15 -20 -15 -11 0 -20 7 -20 15 0 8 9 15 20 15 11 0
20 -7 20 -15z m-6 -31 c25 -9 19 -24 -9 -24 -16 0 -25 6 -25 15 0 16 9 19 34
9z"/>
<path d="M1880 756 c0 -56 17 -85 27 -47 7 26 8 26 35 -1 15 -15 23 -18 26 -9
2 7 -1 18 -7 24 -7 7 -7 14 0 23 6 7 9 23 7 36 -2 19 -10 23 -45 26 l-43 3 0
-55z m65 14 c0 -8 -8 -16 -17 -18 -13 -2 -18 3 -18 18 0 15 5 20 18 18 9 -2
17 -10 17 -18z"/>
<path d="M2067 792 c-36 -40 -7 -92 51 -92 42 0 69 38 51 72 -7 13 -17 26 -23
30 -20 14 -63 8 -79 -10z m73 -17 c18 -22 8 -50 -19 -50 -32 0 -49 28 -32 49
17 20 35 20 51 1z"/>
<path d="M2499 794 c-14 -17 -8 -24 47 -61 17 -12 15 -13 -15 -10 -21 1 -36
-3 -38 -10 -6 -17 68 -18 84 -2 16 16 5 39 -23 50 -30 11 -31 30 -3 26 12 -1
24 4 26 11 7 19 -62 15 -78 -4z"/>
<path d="M3169 754 c-16 -33 -22 -57 -16 -61 6 -3 15 1 22 10 16 22 65 23 65
2 0 -8 7 -15 15 -15 19 0 19 10 -1 38 -8 12 -13 22 -9 22 3 0 -1 14 -10 30 -9
17 -21 30 -28 29 -6 0 -24 -25 -38 -55z m51 0 c0 -14 -12 -19 -23 -8 -9 9 4
35 14 28 5 -3 9 -12 9 -20z"/>
<path d="M3346 795 c-10 -27 -7 -32 24 -45 37 -15 39 -33 3 -28 -15 2 -28 -2
-31 -10 -3 -10 7 -12 39 -10 36 2 45 7 47 24 2 16 -5 25 -27 34 -36 15 -41 32
-8 28 12 -2 24 2 27 7 3 6 -11 11 -31 13 -26 2 -38 -1 -43 -13z"/>
<path d="M3876 794 c-11 -27 -7 -35 24 -45 37 -13 39 -32 3 -27 -15 2 -28 -2
-31 -10 -3 -10 7 -12 39 -10 56 4 65 30 20 56 -37 20 -41 37 -7 28 28 -7 45 9
20 18 -29 11 -62 6 -68 -10z"/>
</g>
</svg>
