<?xml version="1.0" encoding="UTF-8" standalone="no"?>
<svg
   version="1.1"
   width="1190.5511pt"
   height="841.88977pt"
   id="svg29"
   viewBox="0 0 1190.5511 841.88977"
   sodipodi:docname="nail-pro-logo.cdr"
   xmlns:inkscape="http://www.inkscape.org/namespaces/inkscape"
   xmlns:sodipodi="http://sodipodi.sourceforge.net/DTD/sodipodi-0.dtd"
   xmlns="http://www.w3.org/2000/svg"
   xmlns:svg="http://www.w3.org/2000/svg">
  <defs
     id="defs33" />
  <sodipodi:namedview
     id="namedview31"
     pagecolor="#ffffff"
     bordercolor="#000000"
     borderopacity="0.25"
     inkscape:showpageshadow="2"
     inkscape:pageopacity="0.0"
     inkscape:pagecheckerboard="0"
     inkscape:deskcolor="#d1d1d1"
     inkscape:document-units="pt" />
  <path
     d="M 370.9948,445.6797 H 819.5563 V 653.0885 H 370.9948 Z"
     style="fill:#ffffff;fill-rule:evenodd;stroke:#1b1918;stroke-width:0.5;stroke-linecap:butt;stroke-linejoin:miter;stroke-dasharray:none"
     id="path2" />
  <path
     d="m 180.458,188.8011 h 829.6352 V 396.2099 H 180.458 Z"
     style="fill:#ffffff;fill-rule:evenodd;stroke:#1b1918;stroke-width:0.5;stroke-linecap:butt;stroke-linejoin:miter;stroke-dasharray:none"
     id="path4" />
  <g
     id="Layer1000">
    <path
       d="m 488.6443,329.7897 v -14.4672 h -3.1444 v 8.9077 l -6.7852,-8.9077 h -2.9375 v 14.4672 h 3.1444 v -9.197 l 7.0128,9.197 z m 25.7349,0 -6.206,-14.5705 h -2.9375 l -6.206,14.5705 h 3.2478 l 1.3239,-3.2448 h 6.1233 l 1.3239,3.2448 z m -5.7923,-6.0556 h -3.8477 l 1.9239,-4.6915 z m 19.5082,6.0556 v -14.4672 h -3.1857 v 14.4672 z m 22.1768,0 v -2.8935 h -7.2197 v -11.5737 h -3.1857 v 14.4672 z m 21.0183,-4.2782 v -0.0413 c 0,-2.5214 -1.6549,-3.5755 -4.5924,-4.3401 -2.5031,-0.6407 -3.1237,-0.9507 -3.1237,-1.9014 v -0.0414 c 0,-0.7027 0.6413,-1.2607 1.8618,-1.2607 1.2205,0 2.4824,0.5374 3.765,1.4261 l 1.6549,-2.3975 c -1.4687,-1.178 -3.2685,-1.8393 -5.3785,-1.8393 -2.9582,0 -5.0683,1.736 -5.0683,4.3608 v 0.0413 c 0,2.8728 1.8825,3.6788 4.7993,4.4228 2.4204,0.62 2.9169,1.0334 2.9169,1.8394 v 0.0413 c 0,0.8474 -0.7861,1.3641 -2.0894,1.3641 -1.6549,0 -3.0203,-0.682 -4.3235,-1.7567 l -1.8825,2.2527 c 1.7377,1.5501 3.9512,2.3147 6.1439,2.3147 3.1237,0 5.3165,-1.612 5.3165,-4.4848 z"
       style="fill:#000200;fill-rule:evenodd"
       id="path6" />
    <path
       d="m 635.8662,325.8215 v -0.0413 c 0,-1.9427 -1.0343,-2.9141 -2.7099,-3.5548 1.0343,-0.5787 1.9031,-1.488 1.9031,-3.1207 v -0.0414 c 0,-2.2734 -1.8204,-3.7408 -4.7786,-3.7408 h -6.7232 v 14.4672 h 6.8887 c 3.2685,0 5.4199,-1.3227 5.4199,-3.9682 z m -3.9718,-6.1795 c 0,1.0747 -0.8896,1.5294 -2.2963,1.5294 h -2.9375 v -3.0588 h 3.1444 c 1.3447,0 2.0894,0.5374 2.0894,1.4881 z m 0.8068,5.7869 c 0,1.0747 -0.8482,1.5707 -2.2549,1.5707 h -3.7857 v -3.1828 h 3.6823 c 1.6342,0 2.3583,0.5994 2.3583,1.5707 z m 26.4589,4.3608 -3.5374,-5.1669 c 1.8411,-0.682 3.103,-2.1494 3.103,-4.4848 v -0.0413 c 0,-2.9761 -2.048,-4.7742 -5.4613,-4.7742 h -6.6198 v 14.4672 h 3.1858 v -4.6295 h 2.5031 l 3.103,4.6295 z m -3.6616,-9.4863 c 0,1.2193 -0.8895,2.046 -2.441,2.046 h -3.2271 v -4.1541 h 3.1651 c 1.5515,0 2.503,0.7027 2.503,2.0667 z m 29.0034,2.2527 v -0.0413 c 0,-4.1128 -3.2064,-7.4403 -7.6747,-7.4403 -4.4684,0 -7.7162,3.3688 -7.7162,7.4816 v 0.0413 c 0,4.1128 3.2065,7.4403 7.6748,7.4403 4.4683,0 7.7161,-3.3688 7.7161,-7.4816 z m -3.3305,0.0413 c 0,2.4801 -1.7791,4.5055 -4.3442,4.5055 -2.5652,0 -4.3856,-2.0667 -4.3856,-4.5468 v -0.0413 c 0,-2.4801 1.779,-4.5055 4.3442,-4.5055 2.5652,0 4.3856,2.0667 4.3856,4.5468 z m 34.3405,-7.2749 h -3.3305 l -2.9996,9.7963 -3.2478,-9.8376 h -2.7306 l -3.2479,9.8376 -2.9995,-9.7963 h -3.4133 l 4.9441,14.5705 h 2.772 l 3.2685,-9.4656 3.2685,9.4656 h 2.772 z m 20.5633,10.189 v -0.0413 c 0,-2.5214 -1.655,-3.5755 -4.5925,-4.3401 -2.5031,-0.6407 -3.1237,-0.9507 -3.1237,-1.9014 v -0.0414 c 0,-0.7027 0.6413,-1.2607 1.8618,-1.2607 1.2205,0 2.4824,0.5374 3.765,1.4261 l 1.6549,-2.3975 c -1.4687,-1.178 -3.2685,-1.8393 -5.3785,-1.8393 -2.9582,0 -5.0683,1.736 -5.0683,4.3608 v 0.0413 c 0,2.8728 1.8825,3.6788 4.7994,4.4228 2.4203,0.62 2.9168,1.0334 2.9168,1.8394 v 0.0413 c 0,0.8474 -0.7861,1.3641 -2.0894,1.3641 -1.6549,0 -3.0202,-0.682 -4.3235,-1.7567 l -1.8825,2.2527 c 1.7377,1.5501 3.9512,2.3147 6.144,2.3147 3.1237,0 5.3165,-1.612 5.3165,-4.4848 z"
       style="fill:#000200;fill-rule:evenodd"
       id="path8" />
    <path
       d="m 798.748,329.7897 v -2.8935 h -7.2197 v -11.5737 h -3.1857 v 14.4672 z m 24.6592,0 -6.206,-14.5705 h -2.9375 l -6.2061,14.5705 h 3.2478 l 1.324,-3.2448 h 6.1233 l 1.3239,3.2448 z m -5.7923,-6.0556 h -3.8477 l 1.9238,-4.6915 z m 26.4382,1.7774 v -0.0413 c 0,-2.5214 -1.6549,-3.5755 -4.5924,-4.3401 -2.5031,-0.6407 -3.1237,-0.9507 -3.1237,-1.9014 v -0.0414 c 0,-0.7027 0.6413,-1.2607 1.8618,-1.2607 1.2205,0 2.4824,0.5374 3.765,1.4261 l 1.6549,-2.3975 c -1.4687,-1.178 -3.2685,-1.8393 -5.3785,-1.8393 -2.9582,0 -5.0683,1.736 -5.0683,4.3608 v 0.0413 c 0,2.8728 1.8825,3.6788 4.7993,4.4228 2.4204,0.62 2.9169,1.0334 2.9169,1.8394 v 0.0413 c 0,0.8474 -0.7861,1.3641 -2.0894,1.3641 -1.6549,0 -3.0203,-0.682 -4.3235,-1.7567 l -1.8825,2.2527 c 1.7377,1.5501 3.9512,2.3147 6.144,2.3147 3.1236,0 5.3164,-1.612 5.3164,-4.4848 z m 23.1698,4.2782 v -14.4672 h -3.1858 v 5.7249 h -5.875 v -5.7249 h -3.1858 v 14.4672 h 3.1858 v -5.8076 h 5.875 v 5.8076 z m 22.6526,0 v -2.8314 h -7.861 v -3.0382 h 6.8266 v -2.8314 h -6.8266 v -2.9347 h 7.7575 v -2.8315 h -10.9226 v 14.4672 z m 21.4527,-4.2782 v -0.0413 c 0,-2.5214 -1.6549,-3.5755 -4.5924,-4.3401 -2.5031,-0.6407 -3.1237,-0.9507 -3.1237,-1.9014 v -0.0414 c 0,-0.7027 0.6412,-1.2607 1.8618,-1.2607 1.2205,0 2.4824,0.5374 3.7649,1.4261 l 1.655,-2.3975 c -1.4688,-1.178 -3.2685,-1.8393 -5.3786,-1.8393 -2.9582,0 -5.0682,1.736 -5.0682,4.3608 v 0.0413 c 0,2.8728 1.8825,3.6788 4.7993,4.4228 2.4204,0.62 2.9168,1.0334 2.9168,1.8394 v 0.0413 c 0,0.8474 -0.7861,1.3641 -2.0893,1.3641 -1.655,0 -3.0203,-0.682 -4.3235,-1.7567 l -1.8825,2.2527 c 1.7376,1.5501 3.9511,2.3147 6.1439,2.3147 3.1237,0 5.3165,-1.612 5.3165,-4.4848 z"
       style="fill:#000200;fill-rule:evenodd"
       id="path10" />
    <path
       d="m 511.5668,295.84 -28.1553,-27.6336 v 29.7807 h -7.6343 v -39.1245 c 0,-1.153 0.3054,-2.0675 0.9161,-2.7435 0.6108,-0.6759 1.4047,-1.0139 2.3819,-1.0139 1.4251,0 2.8705,0.7356 4.3363,2.2068 l 28.1553,27.5541 v -29.7609 h 7.6344 v 39.1842 c 0,2.7434 -0.9569,4.1152 -2.8705,4.1152 -1.4251,0 -3.0131,-0.8549 -4.7639,-2.5646 z m 67.8506,-9.9004 h -20.8365 l 4.6518,-7.4551 h 11.6245 l -7.6445,-12.3457 -19.8085,31.7887 h -9.833 l 23.8191,-38.7667 c 0.7736,-1.2326 1.7712,-2.2465 2.9927,-3.0417 1.0586,-0.7157 1.9951,-1.0934 2.8094,-1.1331 0.8957,-0.0796 1.8933,0.2186 2.9926,0.8946 1.2622,0.7952 2.3209,1.8886 3.1759,3.2802 l 23.3305,38.7667 h -9.8432 z m 32.8957,12.0475 v -42.8819 h 7.6343 v 42.8819 z m 26.7373,0 v -42.8819 h 7.6343 v 35.4268 h 30.2319 v 7.4551 z m 237.8929,0 c -6.8404,0 -12.3371,-2.2862 -16.4902,-6.8587 -3.7458,-4.1749 -5.6188,-9.1847 -5.6188,-15.0295 0,-5.7653 1.7915,-10.5764 5.3745,-14.4331 4.0717,-4.3737 9.6498,-6.5606 16.7345,-6.5606 h 12.2759 c 7.0847,0 12.6424,2.1869 16.6734,6.5606 3.6237,3.8567 5.4356,8.6678 5.4356,14.4331 0,5.8448 -1.873,10.8546 -5.6189,15.0295 -4.153,4.5725 -9.6497,6.8587 -16.4901,6.8587 z m 0,-35.4267 c -4.3974,0 -7.9601,1.4115 -10.6881,4.2345 -2.4022,2.5049 -3.6848,5.6062 -3.8477,9.304 -0.1221,3.8965 1.0179,7.1966 3.4202,9.9004 2.6873,3.0218 6.3925,4.5327 11.1156,4.5327 h 12.2759 c 4.7231,0 8.4283,-1.5109 11.1156,-4.5327 2.4023,-2.7038 3.522,-6.0039 3.3591,-9.9004 -0.1222,-3.6978 -1.4047,-6.7991 -3.8477,-9.304 -2.6873,-2.823 -6.2296,-4.2345 -10.627,-4.2345 z m -38.9624,35.4267 h -11.2886 l -12.276,-12.0475 h -16.4901 v -7.4551 h 20.521 c 3.5831,0 6.3111,-0.8549 8.184,-2.5646 1.6287,-1.5506 2.3819,-3.4591 2.2598,-5.7255 -0.285,-5.0894 -3.7663,-7.634 -10.4438,-7.634 h -25.0405 v 35.4267 h -7.6343 v -42.8819 h 31.5144 c 6.6368,0 11.6652,1.5706 15.0854,4.7117 2.8909,2.6242 4.3974,6.0933 4.5195,10.3874 0.1222,3.3797 -0.7939,6.3617 -2.7483,8.9462 -2.1682,2.8628 -5.3033,4.8408 -9.4258,5.9144 z m -109.0555,0 h -7.6344 v -42.8819 h 31.5145 c 5.4967,0 9.8737,1.6103 13.131,4.831 2.9316,2.9025 4.3974,6.4412 4.3974,10.616 0,4.1749 -1.4658,7.7136 -4.3974,10.6161 -3.2573,3.1809 -7.6547,4.7713 -13.1921,4.7713 h -19.2995 v -7.4551 h 20.521 c 2.8094,0 5.0488,-0.835 6.7182,-2.5049 1.5065,-1.5109 2.2598,-3.3399 2.2598,-5.487 0,-2.1471 -0.7533,-3.9761 -2.2598,-5.487 -1.6287,-1.6301 -3.8681,-2.4452 -6.7182,-2.4452 h -25.0405 z"
       style="fill:#000200;fill-rule:evenodd"
       id="path12" />
    <path
       d="m 279.223,329.3909 h 18.3282 v -35.9466 -18.0557 h 9.6791 20.3482 c 3.2896,0 6.0212,2.7316 6.0212,6.0213 v 23.2972 c 0,3.2897 -2.7316,6.0213 -6.0212,6.0213 h -20.3482 v 18.6625 h 27.5499 c 9.4312,0 17.1477,-7.7166 17.1477,-17.1477 v -3.8144 c 0,-12.6281 0,-25.2563 0,-37.8844 v -0.5074 c 0,-4.3255 2.7876,-9.7505 7.2017,-14.4169 -1.9217,1.1872 -4.5263,1.3267 -7.2017,1.4404 -2.0285,0 -4.057,0 -6.0856,0 h -9.4556 c -1.2876,0.997 -2.1538,2.2027 -2.805,3.5148 -0.6511,-1.3121 -1.5173,-2.5178 -2.805,-3.5148 h -46.9288 -1.1709 -0.2973 -0.864 -1.1515 -1.1412 z"
       style="fill:#000200;fill-rule:evenodd"
       id="path14" />
  </g>
  <g
     id="Layer1001">
    <g
       id="Layer1002">
      <path
         d="m 448.938,611.7446 v -10.3319 h -2.2456 v 6.3615 l -4.8457,-6.3615 h -2.0979 v 10.3319 h 2.2456 v -6.5681 l 5.0083,6.5681 z m 18.3789,0 -4.4321,-10.4057 h -2.0979 l -4.4321,10.4057 h 2.3195 l 0.9455,-2.3173 h 4.373 l 0.9455,2.3173 z m -4.1367,-4.3247 h -2.7478 l 1.3739,-3.3504 z m 13.932,4.3247 v -10.3319 h -2.2751 v 10.3319 z m 15.8378,0 v -2.0664 h -5.156 v -8.2655 h -2.2751 v 10.3319 z m 15.0105,-3.0553 v -0.0295 c 0,-1.8007 -1.1819,-2.5535 -3.2798,-3.0996 -1.7876,-0.4575 -2.2308,-0.6789 -2.2308,-1.3579 v -0.0295 c 0,-0.5018 0.458,-0.9004 1.3296,-0.9004 0.8717,0 1.7729,0.3838 2.6889,1.0185 l 1.1818,-1.7122 c -1.0489,-0.8413 -2.3342,-1.3136 -3.8411,-1.3136 -2.1126,0 -3.6196,1.2398 -3.6196,3.1143 v 0.0295 c 0,2.0517 1.3445,2.6273 3.4275,3.1586 1.7286,0.4428 2.0831,0.738 2.0831,1.3137 v 0.0295 c 0,0.6051 -0.5614,0.9741 -1.4921,0.9741 -1.1819,0 -2.157,-0.487 -3.0877,-1.2545 l -1.3444,1.6088 c 1.241,1.107 2.8218,1.6531 4.3878,1.6531 2.2308,0 3.7968,-1.1513 3.7968,-3.2029 z"
         style="fill:#000200;fill-rule:evenodd"
         id="path17" />
      <path
         d="m 554.0781,608.9107 v -0.0295 c 0,-1.3874 -0.7387,-2.0812 -1.9353,-2.5387 0.7387,-0.4133 1.3592,-1.0627 1.3592,-2.2287 v -0.0296 c 0,-1.6235 -1.3001,-2.6715 -3.4127,-2.6715 h -4.8015 v 10.3319 h 4.9196 c 2.3343,0 3.8707,-0.9447 3.8707,-2.8339 z m -2.8365,-4.4132 c 0,0.7675 -0.6353,1.0922 -1.6399,1.0922 h -2.0978 v -2.1844 h 2.2455 c 0.9603,0 1.4922,0.3837 1.4922,1.0627 z m 0.5762,4.1328 c 0,0.7675 -0.6058,1.1217 -1.6104,1.1217 h -2.7035 v -2.273 h 2.6297 c 1.1671,0 1.6842,0.428 1.6842,1.1217 z m 18.8959,3.1143 -2.5263,-3.69 c 1.3149,-0.4871 2.2161,-1.535 2.2161,-3.2029 v -0.0295 c 0,-2.1254 -1.4626,-3.4095 -3.9003,-3.4095 h -4.7276 v 10.3319 h 2.2752 v -3.3062 h 1.7876 l 2.216,3.3062 z m -2.6149,-6.7748 c 0,0.8708 -0.6353,1.4612 -1.7433,1.4612 h -2.3047 v -2.9667 h 2.2604 c 1.108,0 1.7876,0.5019 1.7876,1.476 z m 20.7131,1.6088 v -0.0295 c 0,-2.9372 -2.29,-5.3135 -5.4811,-5.3135 -3.1911,0 -5.5105,2.4058 -5.5105,5.343 v 0.0296 c 0,2.9372 2.2899,5.3135 5.481,5.3135 3.1911,0 5.5106,-2.4059 5.5106,-5.3431 z m -2.3786,0.0296 c 0,1.7711 -1.2705,3.2176 -3.1025,3.2176 -1.8319,0 -3.132,-1.476 -3.132,-3.2472 v -0.0295 c 0,-1.7712 1.2705,-3.2176 3.1025,-3.2176 1.8319,0 3.132,1.476 3.132,3.2471 z m 24.5247,-5.1955 h -2.3786 l -2.1422,6.9962 -2.3194,-7.0257 h -1.9501 l -2.3195,7.0257 -2.1422,-6.9962 h -2.4376 l 3.5309,10.4057 h 1.9796 l 2.3343,-6.76 2.3342,6.76 h 1.9797 z m 14.6854,7.2766 v -0.0295 c 0,-1.8007 -1.1819,-2.5535 -3.2797,-3.0996 -1.7876,-0.4575 -2.2308,-0.6789 -2.2308,-1.3579 v -0.0295 c 0,-0.5018 0.4579,-0.9004 1.3296,-0.9004 0.8716,0 1.7728,0.3838 2.6888,1.0185 l 1.1819,-1.7122 c -1.049,-0.8413 -2.3343,-1.3136 -3.8412,-1.3136 -2.1126,0 -3.6195,1.2398 -3.6195,3.1143 v 0.0295 c 0,2.0517 1.3444,2.6273 3.4275,3.1586 1.7285,0.4428 2.0831,0.738 2.0831,1.3137 v 0.0295 c 0,0.6051 -0.5614,0.9741 -1.4922,0.9741 -1.1819,0 -2.1569,-0.487 -3.0877,-1.2545 l -1.3444,1.6088 c 1.241,1.107 2.8218,1.6531 4.3878,1.6531 2.2308,0 3.7968,-1.1513 3.7968,-3.2029 z"
         style="fill:#000200;fill-rule:evenodd"
         id="path19" />
      <path
         d="m 670.4019,611.7446 v -2.0664 h -5.156 v -8.2655 h -2.2751 v 10.3319 z m 17.6106,0 -4.4321,-10.4057 h -2.0978 l -4.4321,10.4057 h 2.3194 l 0.9456,-2.3173 h 4.3729 l 0.9456,2.3173 z m -4.1366,-4.3247 h -2.7479 l 1.374,-3.3504 z m 18.8812,1.2694 v -0.0295 c 0,-1.8007 -1.1819,-2.5535 -3.2798,-3.0996 -1.7876,-0.4575 -2.2308,-0.6789 -2.2308,-1.3579 v -0.0295 c 0,-0.5018 0.458,-0.9004 1.3296,-0.9004 0.8717,0 1.7729,0.3838 2.6888,1.0185 l 1.1819,-1.7122 c -1.0489,-0.8413 -2.3342,-1.3136 -3.8411,-1.3136 -2.1127,0 -3.6196,1.2398 -3.6196,3.1143 v 0.0295 c 0,2.0517 1.3444,2.6273 3.4275,3.1586 1.7285,0.4428 2.0831,0.738 2.0831,1.3137 v 0.0295 c 0,0.6051 -0.5614,0.9741 -1.4921,0.9741 -1.1819,0 -2.157,-0.487 -3.0877,-1.2545 l -1.3444,1.6088 c 1.241,1.107 2.8217,1.6531 4.3877,1.6531 2.2308,0 3.7969,-1.1513 3.7969,-3.2029 z m 16.5469,3.0553 v -10.3319 h -2.2752 v 4.0885 h -4.1957 v -4.0885 h -2.2751 v 10.3319 h 2.2751 v -4.1475 h 4.1957 v 4.1475 z m 16.1776,0 v -2.0221 h -5.614 v -2.1697 h 4.8753 v -2.0221 h -4.8753 v -2.0959 h 5.5401 v -2.0221 h -7.8005 v 10.3319 z m 15.3207,-3.0553 v -0.0295 c 0,-1.8007 -1.1819,-2.5535 -3.2798,-3.0996 -1.7876,-0.4575 -2.2308,-0.6789 -2.2308,-1.3579 v -0.0295 c 0,-0.5018 0.458,-0.9004 1.3296,-0.9004 0.8717,0 1.7729,0.3838 2.6888,1.0185 l 1.1819,-1.7122 c -1.0489,-0.8413 -2.3342,-1.3136 -3.8411,-1.3136 -2.1126,0 -3.6196,1.2398 -3.6196,3.1143 v 0.0295 c 0,2.0517 1.3444,2.6273 3.4275,3.1586 1.7285,0.4428 2.0831,0.738 2.0831,1.3137 v 0.0295 c 0,0.6051 -0.5614,0.9741 -1.4921,0.9741 -1.1819,0 -2.157,-0.487 -3.0877,-1.2545 l -1.3444,1.6088 c 1.241,1.107 2.8217,1.6531 4.3877,1.6531 2.2309,0 3.7969,-1.1513 3.7969,-3.2029 z"
         style="fill:#000200;fill-rule:evenodd"
         id="path21" />
      <path
         d="m 465.3084,587.4991 -20.1075,-19.7349 v 21.2682 h -5.4521 v -27.9411 c 0,-0.8235 0.2181,-1.4766 0.6543,-1.9593 0.4361,-0.4828 1.0032,-0.7241 1.701,-0.7241 1.0178,0 2.05,0.5253 3.0968,1.5759 l 20.1075,19.6781 v -21.254 h 5.4521 v 27.9837 c 0,1.9593 -0.6833,2.939 -2.05,2.939 -1.0177,0 -2.1518,-0.6105 -3.4021,-1.8315 z m 48.4562,-7.0705 H 498.884 l 3.3221,-5.3242 h 8.3018 l -5.4594,-8.8168 -14.1465,22.7022 h -7.0223 l 17.0106,-27.6856 c 0.5525,-0.8802 1.2649,-1.6043 2.1373,-2.1722 0.756,-0.5112 1.4248,-0.7809 2.0064,-0.8093 0.6397,-0.0568 1.3521,0.1562 2.1372,0.6389 0.9014,0.5679 1.6574,1.3488 2.2681,2.3426 l 16.6617,27.6856 h -7.0296 z m 23.4928,8.6038 v -30.6245 h 5.4521 v 30.6245 z m 19.0947,0 v -30.6245 h 5.4521 v 25.3004 h 21.5905 v 5.3241 z m 169.8938,0 c -4.8851,0 -8.8106,-1.6327 -11.7766,-4.8982 -2.6752,-2.9815 -4.0128,-6.5594 -4.0128,-10.7335 0,-4.1173 1.2795,-7.5532 3.8383,-10.3076 2.9078,-3.1235 6.8915,-4.6852 11.9511,-4.6852 h 8.767 c 5.0596,0 9.0287,1.5617 11.9075,4.6852 2.5879,2.7544 3.8819,6.1903 3.8819,10.3076 0,4.1741 -1.3376,7.752 -4.0128,10.7335 -2.9659,3.2655 -6.8915,4.8982 -11.7766,4.8982 z m 0,-25.3004 c -3.1404,0 -5.6848,1.0081 -7.633,3.0242 -1.7156,1.7889 -2.6315,4.0037 -2.7478,6.6445 -0.0873,2.7828 0.7269,5.1396 2.4425,7.0705 1.9191,2.158 4.5652,3.2371 7.9383,3.2371 h 8.767 c 3.3731,0 6.0192,-1.0791 7.9383,-3.2371 1.7156,-1.9309 2.5153,-4.2877 2.3989,-7.0705 -0.0872,-2.6408 -1.0031,-4.8556 -2.7478,-6.6445 -1.9192,-2.0161 -4.449,-3.0242 -7.5894,-3.0242 z m -27.8254,25.3004 h -8.0619 l -8.767,-8.6038 H 669.815 v -5.3242 h 14.6553 c 2.5589,0 4.5071,-0.6105 5.8447,-1.8315 1.1631,-1.1074 1.7011,-2.4704 1.6138,-4.0889 -0.2035,-3.6347 -2.6897,-5.452 -7.4585,-5.452 h -17.8829 v 25.3004 h -5.4522 v -30.6245 h 22.5064 c 4.7397,0 8.3308,1.1216 10.7734,3.3649 2.0645,1.8741 3.1404,4.3516 3.2277,7.4183 0.0872,2.4136 -0.5671,4.5432 -1.9628,6.389 -1.5484,2.0444 -3.7874,3.4571 -6.7316,4.2238 z m -77.8832,0 h -5.4521 v -30.6245 h 22.5064 c 3.9255,0 7.0514,1.15 9.3776,3.45 2.0936,2.0729 3.1404,4.6001 3.1404,7.5816 0,2.9816 -1.0468,5.5088 -3.1404,7.5816 -2.3262,2.2717 -5.4666,3.4075 -9.4213,3.4075 H 623.765 v -5.3242 h 14.6553 c 2.0064,0 3.6057,-0.5963 4.7979,-1.7889 1.0758,-1.079 1.6138,-2.3852 1.6138,-3.9186 0,-1.5333 -0.538,-2.8395 -1.6138,-3.9185 -1.1632,-1.1643 -2.7625,-1.7464 -4.7979,-1.7464 h -17.883 z"
         style="fill:#000200;fill-rule:evenodd"
         id="path23" />
    </g>
    <path
       d="m 566.7425,539.5308 h 13.0892 v -25.6717 -12.8946 h 6.9125 14.5319 c 2.3493,0 4.3001,1.9508 4.3001,4.3001 v 16.638 c 0,2.3494 -1.9508,4.3001 -4.3001,4.3001 h -14.5319 v 13.3281 h 19.675 c 6.7355,0 12.2463,-5.5109 12.2463,-12.2463 v -2.7241 c 0,-9.0185 0,-18.037 0,-27.0555 v -0.3624 c 0,-3.0891 1.9907,-6.9634 5.1431,-10.2959 -1.3723,0.8478 -3.2325,0.9474 -5.1431,1.0286 -1.4487,0 -2.8974,0 -4.3461,0 h -6.7528 c -0.9196,0.7121 -1.5382,1.5731 -2.0032,2.5101 -0.4651,-0.937 -1.0837,-1.798 -2.0033,-2.5101 h -33.5147 -0.8362 -0.2123 -0.6171 -0.8223 -0.815 z"
       style="fill:#000200;fill-rule:evenodd"
       id="path26" />
  </g>
</svg>
